<svg width="457" height="230" viewBox="0 0 457 230" fill="none" xmlns="http://www.w3.org/2000/svg">
<path d="M182.77 156.051H193.914V170.395H228.086V156.051H239.266V211H228.086V179.922H193.914V211H182.77V156.051ZM251.641 183.367C251.641 179.219 252.402 175.422 253.926 171.977C255.449 168.531 257.582 165.578 260.324 163.117C263.09 160.633 266.395 158.711 270.238 157.352C274.105 155.992 278.383 155.312 283.07 155.312C287.734 155.312 292 155.992 295.867 157.352C299.734 158.711 303.039 160.633 305.781 163.117C308.547 165.578 310.691 168.531 312.215 171.977C313.738 175.422 314.5 179.219 314.5 183.367C314.5 187.539 313.738 191.371 312.215 194.863C310.691 198.332 308.547 201.32 305.781 203.828C303.039 206.336 299.734 208.293 295.867 209.699C292 211.082 287.734 211.773 283.07 211.773C278.383 211.773 274.105 211.082 270.238 209.699C266.395 208.293 263.09 206.336 260.324 203.828C257.582 201.32 255.449 198.332 253.926 194.863C252.402 191.371 251.641 187.539 251.641 183.367ZM262.785 183.367C262.785 186.203 263.289 188.758 264.297 191.031C265.328 193.305 266.746 195.25 268.551 196.867C270.379 198.461 272.523 199.691 274.984 200.559C277.469 201.426 280.164 201.859 283.07 201.859C285.977 201.859 288.66 201.426 291.121 200.559C293.605 199.691 295.75 198.461 297.555 196.867C299.359 195.25 300.777 193.305 301.809 191.031C302.84 188.758 303.355 186.203 303.355 183.367C303.355 180.531 302.84 177.988 301.809 175.738C300.777 173.488 299.359 171.59 297.555 170.043C295.75 168.473 293.605 167.277 291.121 166.457C288.66 165.637 285.977 165.227 283.07 165.227C280.164 165.227 277.469 165.637 274.984 166.457C272.523 167.277 270.379 168.473 268.551 170.043C266.746 171.59 265.328 173.488 264.297 175.738C263.289 177.988 262.785 180.531 262.785 183.367ZM326.91 156.051H338.055L358.023 176.09L377.992 156.051H389.137V211H377.992V171.484L358.023 190.715L338.055 171.484V211H326.91V156.051ZM404.781 156.051H451.574V165.824H415.926V176.793H447.496V185.969H415.926V201.262H452.312V211H404.781V156.051Z" fill="black"/>
<path d="M10 86.5L82.5 15L153.5 86.5V207H10V86.5Z" stroke="black" stroke-width="20"/>
<rect x="52" y="115" width="60" height="57" stroke="black" stroke-width="18"/>
</svg>
